<?xml version="1.0" encoding="UTF-8"?> <svg xmlns="http://www.w3.org/2000/svg" width="27" height="24" viewBox="0 0 27 24" fill="none"><path d="M1.42315 15.4646L3.22866 14.3817C3.61687 14.1498 4.11862 14.2511 4.38473 14.6161C7.0509 12.188 9.58661 11.8547 11.923 13.6273C12.061 13.7359 12.2209 13.8128 12.3918 13.8531L16.6952 14.9311C17.0797 15.0275 17.4191 15.2533 17.6559 15.572L23.1031 13.0865C24.1567 12.6055 25.1613 12.7862 25.6607 13.5492V13.548C25.9634 14.0045 26.0696 14.5624 25.9549 15.0971C25.8621 15.5341 25.5935 15.9163 25.2126 16.1506L17.7122 20.7444V20.7456C17.3569 20.9934 16.9394 21.1362 16.506 21.157C16.4267 21.157 16.3461 21.1509 16.2668 21.1399L9.6123 20.1865C9.31931 20.1388 9.01779 20.1987 8.76509 20.3549L8.03017 20.7919L8.1144 20.936H8.11562C8.35734 21.3498 8.22183 21.8833 7.81165 22.1311L6.00735 23.214H6.00613C5.87184 23.2957 5.71802 23.3385 5.56054 23.3385C5.48729 23.3385 5.41405 23.3287 5.34202 23.3104C5.11496 23.2555 4.91962 23.109 4.80121 22.9063L1.11942 16.6597H1.12064C0.877707 16.2458 1.01297 15.7136 1.42315 15.4646ZM8.45983 19.8398C8.82973 19.614 9.26797 19.5261 9.69646 19.5932L16.3509 20.5479C16.7269 20.576 17.1005 20.4649 17.4008 20.2354L24.9013 15.6416C25.1442 15.4903 25.3139 15.2461 25.3713 14.9665C25.4494 14.5893 25.3737 14.1962 25.1613 13.8752C24.7621 13.266 23.9368 13.3612 23.3521 13.6286L17.933 16.1019C18.0368 16.4205 18.049 16.7623 17.9672 17.0882C17.7255 18.0282 16.7696 18.5959 15.8284 18.3591L13.6981 17.8158H13.6993C13.5443 17.7706 13.4515 17.6107 13.4918 17.4545C13.5321 17.2982 13.6884 17.2006 13.847 17.236L15.9761 17.7816C16.5975 17.9379 17.2274 17.5631 17.3885 16.943C17.4642 16.6378 17.4154 16.3143 17.253 16.0433C17.0992 15.7796 16.8453 15.5879 16.5498 15.5122L12.2477 14.4343V14.4331C11.9987 14.3732 11.7655 14.2609 11.5628 14.1035C9.43503 12.4896 7.18758 12.8278 4.69961 15.1399L7.72593 20.2771L8.45983 19.8398ZM1.63441 16.3559L5.31619 22.6025V22.6037C5.35404 22.6672 5.41508 22.7136 5.48711 22.7319C5.55913 22.7502 5.63482 22.738 5.6983 22.7002L7.50382 21.6173C7.63444 21.5392 7.67717 21.3695 7.60026 21.2389L3.91847 14.991C3.88185 14.9263 3.82081 14.8799 3.74756 14.8628C3.72314 14.8567 3.69873 14.8531 3.67431 14.8531C3.62548 14.8543 3.57787 14.8677 3.53636 14.8946L1.73084 15.9774C1.60144 16.0568 1.5575 16.2252 1.63441 16.3559ZM2.99802 16.7416C3.07371 16.8735 3.22143 16.9455 3.37158 16.926C3.52174 16.9064 3.64626 16.7978 3.68532 16.6513C3.72438 16.5048 3.67189 16.3485 3.55103 16.257C3.43017 16.1642 3.26659 16.1532 3.13476 16.2301C2.95652 16.3339 2.89426 16.5622 2.99802 16.7416ZM23.0433 8.32552L21.8897 8.52817C21.8006 8.81262 21.6858 9.0873 21.5491 9.35097L22.2193 10.3105C22.3036 10.4289 22.2889 10.5901 22.1864 10.6926L20.6921 12.1868C20.5896 12.2894 20.4285 12.304 20.3088 12.2198L19.3505 11.5472V11.5484C19.0868 11.6851 18.8121 11.7999 18.5277 11.889L18.3251 13.0426C18.3006 13.1854 18.1761 13.2892 18.0308 13.2892H15.9189C15.7748 13.2892 15.6503 13.1854 15.6247 13.0426L15.422 11.889C15.1388 11.7998 14.8641 11.6851 14.6005 11.5484L13.6422 12.221L13.6409 12.2198C13.5225 12.304 13.3614 12.2894 13.2588 12.1868L11.7646 10.6926C11.6621 10.5901 11.6474 10.4289 11.7304 10.3105L12.4031 9.35097C12.2663 9.08729 12.1528 8.8126 12.0625 8.52817L10.9101 8.32552C10.7672 8.30111 10.6635 8.17659 10.6635 8.03254V5.91816C10.6635 5.7741 10.7672 5.64959 10.9101 5.62517L12.0625 5.42252C12.1528 5.13808 12.2663 4.86339 12.4043 4.59972L11.7317 3.64141V3.64019C11.6487 3.52177 11.6621 3.36063 11.7646 3.25807L13.2588 1.76386C13.3614 1.66131 13.5238 1.64666 13.6422 1.7309L14.6005 2.40231C14.8642 2.26559 15.1389 2.15205 15.4221 2.06173L15.6247 0.908096V0.909317C15.6504 0.766487 15.7749 0.661499 15.9189 0.661499H18.0321C18.1774 0.661499 18.3019 0.765265 18.3263 0.909317L18.5289 2.06295V2.06173C18.8122 2.15207 19.0881 2.2656 19.3517 2.40231L20.3101 1.72968V1.7309C20.4285 1.64789 20.5908 1.66131 20.6934 1.76386L22.1889 3.25808C22.2914 3.36062 22.3061 3.52176 22.2218 3.64019L21.5492 4.5985L21.5504 4.59972C21.6871 4.86341 21.8007 5.1381 21.891 5.42252L23.0446 5.62517H23.0434C23.1862 5.64959 23.2912 5.77411 23.2912 5.91816V8.03132C23.2912 8.17659 23.1862 8.30111 23.0433 8.32552ZM22.693 6.16964L21.6053 5.9792H21.604C21.4905 5.95845 21.3989 5.87543 21.3684 5.76434C21.2683 5.40176 21.1243 5.05386 20.9387 4.72668C20.8813 4.62658 20.8874 4.50206 20.9534 4.40807L21.5881 3.50227L20.4492 2.36329L19.5434 2.99808L19.5421 2.99686C19.4481 3.06278 19.3236 3.06888 19.2235 3.01273C18.8976 2.82717 18.5497 2.68311 18.1883 2.58301C18.0772 2.55249 17.993 2.46093 17.9735 2.3474L17.783 1.25968H16.1716L15.9799 2.3474C15.9604 2.46093 15.8762 2.55372 15.7651 2.58301C15.4025 2.68312 15.0546 2.82717 14.7286 3.01273C14.6285 3.0701 14.504 3.06522 14.4088 2.99808L13.503 2.36329L12.364 3.50227L12.9988 4.40807V4.40929C13.0647 4.50329 13.0708 4.62781 13.0135 4.72791C12.8279 5.05508 12.6839 5.40301 12.5838 5.76556C12.5532 5.87665 12.4605 5.95966 12.3469 5.98042L11.2592 6.17086V7.78105L12.3469 7.9715C12.4605 7.99225 12.5532 8.07526 12.5838 8.18758C12.6839 8.54891 12.8279 8.89684 13.0135 9.2228C13.0708 9.32412 13.0647 9.44864 12.9988 9.54263L12.364 10.4484L13.5042 11.5874L14.41 10.9526C14.504 10.8867 14.6286 10.8806 14.7286 10.9367C15.0558 11.1223 15.4037 11.2676 15.7651 11.3665C15.8762 11.397 15.9604 11.4898 15.9799 11.6033L16.1716 12.691L17.7818 12.6922L17.9722 11.6045L17.9735 11.6033C17.993 11.4898 18.0772 11.397 18.1883 11.3665C18.5496 11.2676 18.8976 11.1235 19.2235 10.938C19.3249 10.8806 19.4482 10.8867 19.5434 10.9526L20.4492 11.5874L21.5881 10.4484L20.9534 9.54262L20.9546 9.5414C20.8874 9.4474 20.8813 9.32288 20.9387 9.22279C21.1243 8.89683 21.2683 8.54894 21.3684 8.18757C21.3989 8.07648 21.4905 7.99225 21.604 7.97271L22.6918 7.78105L22.693 6.16964ZM16.9761 9.66954C15.8859 9.66954 14.9032 9.01275 14.4869 8.00685C14.0694 6.99969 14.3002 5.84118 15.0705 5.06967C15.8408 4.29937 17.0005 4.06864 18.0077 4.48613C19.0136 4.90241 19.6704 5.88516 19.6704 6.97528C19.6691 8.46341 18.463 9.66832 16.9761 9.66954ZM16.9761 4.878C16.1277 4.878 15.3634 5.3895 15.0387 6.17202C14.714 6.95575 14.8935 7.8579 15.4928 8.45853C16.0923 9.05794 16.9944 9.23739 17.7781 8.91265C18.5619 8.58791 19.0722 7.82371 19.0722 6.97528C19.0709 5.81799 18.1334 4.87922 16.9761 4.878Z" fill="#F0175E"></path><path d="M2.99681 16.7404L2.99802 16.7416M2.99802 16.7416C3.07371 16.8735 3.22143 16.9455 3.37158 16.926C3.52174 16.9064 3.64626 16.7978 3.68532 16.6513C3.72438 16.5048 3.67189 16.3485 3.55103 16.257C3.43017 16.1642 3.26659 16.1532 3.13476 16.2301C2.95652 16.3339 2.89426 16.5622 2.99802 16.7416ZM16.9773 9.66954H16.9761M16.9761 9.66954C15.8859 9.66954 14.9032 9.01275 14.4869 8.00685C14.0694 6.99969 14.3002 5.84118 15.0705 5.06967C15.8408 4.29937 17.0005 4.06864 18.0077 4.48613C19.0136 4.90241 19.6704 5.88516 19.6704 6.97528C19.6691 8.46341 18.463 9.66832 16.9761 9.66954ZM16.9773 4.878H16.9761M16.9761 4.878C16.1277 4.878 15.3634 5.3895 15.0387 6.17202C14.714 6.95575 14.8935 7.8579 15.4928 8.45853C16.0923 9.05794 16.9944 9.23739 17.7781 8.91265C18.5619 8.58791 19.0722 7.82371 19.0722 6.97528C19.0709 5.81799 18.1334 4.87922 16.9761 4.878ZM1.42315 15.4646L3.22866 14.3817C3.61687 14.1498 4.11862 14.2511 4.38473 14.6161C7.0509 12.188 9.58661 11.8547 11.923 13.6273C12.061 13.7359 12.2209 13.8128 12.3918 13.8531L16.6952 14.9311C17.0797 15.0275 17.4191 15.2533 17.6559 15.572L23.1031 13.0865C24.1567 12.6055 25.1613 12.7862 25.6607 13.5492V13.548C25.9634 14.0045 26.0696 14.5624 25.9549 15.0971C25.8621 15.5341 25.5935 15.9163 25.2126 16.1506L17.7122 20.7444V20.7456C17.3569 20.9934 16.9394 21.1362 16.506 21.157C16.4267 21.157 16.3461 21.1509 16.2668 21.1399L9.6123 20.1865C9.31931 20.1388 9.01779 20.1987 8.76509 20.3549L8.03017 20.7919L8.1144 20.936H8.11562C8.35734 21.3498 8.22183 21.8833 7.81165 22.1311L6.00735 23.214H6.00613C5.87184 23.2957 5.71802 23.3385 5.56054 23.3385C5.48729 23.3385 5.41405 23.3287 5.34202 23.3104C5.11496 23.2555 4.91962 23.109 4.80121 22.9063L1.11942 16.6597H1.12064C0.877707 16.2458 1.01297 15.7136 1.42315 15.4646ZM8.45983 19.8398C8.82973 19.614 9.26797 19.5261 9.69646 19.5932L16.3509 20.5479C16.7269 20.576 17.1005 20.4649 17.4008 20.2354L24.9013 15.6416C25.1442 15.4903 25.3139 15.2461 25.3713 14.9665C25.4494 14.5893 25.3737 14.1962 25.1613 13.8752C24.7621 13.266 23.9368 13.3612 23.3521 13.6286L17.933 16.1019C18.0368 16.4205 18.049 16.7623 17.9672 17.0882C17.7255 18.0282 16.7696 18.5959 15.8284 18.3591L13.6981 17.8158H13.6993C13.5443 17.7706 13.4515 17.6107 13.4918 17.4545C13.5321 17.2982 13.6884 17.2006 13.847 17.236L15.9761 17.7816C16.5975 17.9379 17.2274 17.5631 17.3885 16.943C17.4642 16.6378 17.4154 16.3143 17.253 16.0433C17.0992 15.7796 16.8453 15.5879 16.5498 15.5122L12.2477 14.4343V14.4331C11.9987 14.3732 11.7655 14.2609 11.5628 14.1035C9.43503 12.4896 7.18758 12.8278 4.69961 15.1399L7.72593 20.2771L8.45983 19.8398ZM1.63441 16.3559L5.3162 22.6025V22.6037C5.35404 22.6672 5.41508 22.7136 5.48711 22.7319C5.55913 22.7502 5.63482 22.738 5.6983 22.7002L7.50382 21.6173C7.63444 21.5392 7.67717 21.3695 7.60026 21.2389L3.91847 14.991C3.88185 14.9263 3.82081 14.8799 3.74756 14.8628C3.72314 14.8567 3.69873 14.8531 3.67431 14.8531C3.62548 14.8543 3.57787 14.8677 3.53636 14.8946L1.73085 15.9774C1.60144 16.0568 1.5575 16.2252 1.63441 16.3559ZM23.0433 8.32552L21.8897 8.52817C21.8006 8.81262 21.6858 9.0873 21.5491 9.35097L22.2193 10.3105C22.3036 10.4289 22.2889 10.5901 22.1864 10.6926L20.6921 12.1868C20.5896 12.2894 20.4285 12.304 20.3088 12.2198L19.3505 11.5472V11.5484C19.0868 11.6851 18.8121 11.7999 18.5277 11.889L18.3251 13.0426C18.3006 13.1854 18.1761 13.2892 18.0308 13.2892H15.9189C15.7748 13.2892 15.6503 13.1854 15.6247 13.0426L15.422 11.889C15.1388 11.7998 14.8641 11.6851 14.6005 11.5484L13.6422 12.221L13.6409 12.2198C13.5225 12.304 13.3614 12.2894 13.2588 12.1868L11.7646 10.6926C11.6621 10.5901 11.6474 10.4289 11.7304 10.3105L12.4031 9.35097C12.2663 9.08729 12.1528 8.8126 12.0625 8.52817L10.9101 8.32552C10.7672 8.30111 10.6635 8.17659 10.6635 8.03254V5.91816C10.6635 5.7741 10.7672 5.64959 10.9101 5.62517L12.0625 5.42252C12.1528 5.13808 12.2663 4.86339 12.4043 4.59972L11.7317 3.64141V3.64019C11.6487 3.52177 11.6621 3.36063 11.7646 3.25807L13.2588 1.76386C13.3614 1.66131 13.5238 1.64666 13.6422 1.7309L14.6005 2.40231C14.8642 2.26559 15.1389 2.15205 15.4221 2.06173L15.6247 0.908096V0.909317C15.6504 0.766487 15.7749 0.661499 15.9189 0.661499H18.0321C18.1774 0.661499 18.3019 0.765265 18.3263 0.909317L18.5289 2.06295V2.06173C18.8122 2.15207 19.0881 2.2656 19.3517 2.40231L20.3101 1.72968V1.7309C20.4285 1.64789 20.5908 1.66131 20.6934 1.76386L22.1889 3.25808C22.2914 3.36062 22.3061 3.52176 22.2218 3.64019L21.5492 4.5985L21.5504 4.59972C21.6871 4.86341 21.8007 5.1381 21.891 5.42252L23.0446 5.62517H23.0434C23.1862 5.64959 23.2912 5.77411 23.2912 5.91816V8.03132C23.2912 8.17659 23.1862 8.30111 23.0433 8.32552ZM22.693 6.16964L21.6053 5.9792H21.604C21.4905 5.95844 21.3989 5.87543 21.3684 5.76434C21.2683 5.40176 21.1243 5.05386 20.9387 4.72668C20.8813 4.62658 20.8874 4.50206 20.9534 4.40807L21.5881 3.50227L20.4492 2.36329L19.5434 2.99808L19.5421 2.99686C19.4481 3.06278 19.3236 3.06888 19.2235 3.01273C18.8976 2.82717 18.5497 2.68311 18.1883 2.58301C18.0772 2.55249 17.993 2.46093 17.9735 2.3474L17.783 1.25968H16.1716L15.9799 2.3474C15.9604 2.46093 15.8762 2.55372 15.7651 2.58301C15.4025 2.68312 15.0546 2.82717 14.7286 3.01273C14.6285 3.0701 14.504 3.06522 14.4088 2.99808L13.503 2.36329L12.364 3.50227L12.9988 4.40807V4.40929C13.0647 4.50329 13.0708 4.62781 13.0135 4.72791C12.8279 5.05508 12.6839 5.40301 12.5838 5.76556C12.5532 5.87665 12.4605 5.95966 12.3469 5.98042L11.2592 6.17086V7.78105L12.3469 7.9715C12.4605 7.99225 12.5532 8.07526 12.5838 8.18758C12.6839 8.54891 12.8279 8.89684 13.0135 9.2228C13.0708 9.32412 13.0647 9.44864 12.9988 9.54263L12.364 10.4484L13.5042 11.5874L14.41 10.9526C14.504 10.8867 14.6286 10.8806 14.7286 10.9367C15.0558 11.1223 15.4037 11.2676 15.7651 11.3665C15.8762 11.397 15.9604 11.4898 15.9799 11.6033L16.1716 12.691L17.7818 12.6922L17.9722 11.6045L17.9735 11.6033C17.993 11.4898 18.0772 11.397 18.1883 11.3665C18.5496 11.2676 18.8976 11.1235 19.2235 10.938C19.3249 10.8806 19.4482 10.8867 19.5434 10.9526L20.4492 11.5874L21.5881 10.4484L20.9534 9.54262L20.9546 9.5414C20.8874 9.4474 20.8813 9.32288 20.9387 9.22279C21.1243 8.89683 21.2683 8.54894 21.3684 8.18757C21.3989 8.07648 21.4905 7.99225 21.604 7.97271L22.6918 7.78105L22.693 6.16964Z" stroke="#F0175E" stroke-width="0.2"></path></svg> 